# xmcd CD database file
#
# Track frame offsets:
#	150
#	14071
#	27253
#	44968
#	65023
#	81673
#	97130
#	109109
#	127021
#	141526
#	161383
#	175858
#	192746
#	208825
#	225520
#	242686
#	258085
#	269593
#	286747
#	297454
#	313042
#	330986
#
# Disc length: 4589 seconds
#
# Revision: 4
# Processed by: cddbd v1.5.2PL0 Copyright (c) Steve Scherf et al.
# Submitted via: CDex 1.51
#
DISCID=6011eb16
DTITLE=VAYA CON DIOS - The Very Best Vaya Con Dios
DYEAR=1996
DGENRE=Rock
TTITLE0=Don't Cry For Louie
TTITLE1=Nah Nah Nah
TTITLE2=What's A Woman
TTITLE3=Don't Dreak My Heart
TTITLE4=Time Flies
TTITLE5=Just A Friend Of Mine
TTITLE6=Something's Got A Hold On Me
TTITLE7=Forever Blue
TTITLE8=Far Gone Now
TTITLE9=Puerto Rico
TTITLE10=Farewell Song
TTITLE11=Sold My Soul
TTITLE12=I Don't Want To Know
TTITLE13=Heading For A Fall
TTITLE14=Quand Elle Rit Aux Eclats
TTITLE15=Lord Help Me Please
TTITLE16=Mothers And Daughters
TTITLE17=Evening Of Love
TTITLE18=Johnny
TTITLE19=Sunny Days
TTITLE20=Night Owls
TTITLE21=So Long Ago
EXTD=YEAR: 1996
EXTT0=
EXTT1=
EXTT2=
EXTT3=
EXTT4=
EXTT5=
EXTT6=
EXTT7=
EXTT8=
EXTT9=
EXTT10=
EXTT11=
EXTT12=
EXTT13=
EXTT14=
EXTT15=
EXTT16=
EXTT17=
EXTT18=
EXTT19=
EXTT20=
EXTT21=
PLAYORDER=
